<?xml version="1.0" encoding="UTF-8" standalone="no"?><!DOCTYPE svg PUBLIC "-//W3C//DTD SVG 1.1//EN" "http://www.w3.org/Graphics/SVG/1.1/DTD/svg11.dtd"><svg width="100%" height="100%" viewBox="0 0 12756 12756" version="1.1" xmlns="http://www.w3.org/2000/svg" xmlns:xlink="http://www.w3.org/1999/xlink" xml:space="preserve" xmlns:serif="http://www.serif.com/" style="fill-rule:evenodd;clip-rule:evenodd;stroke-linecap:round;stroke-linejoin:round;stroke-miterlimit:1.5;"><g><g><g transform="matrix(447.758342,0,0,447.758342,4378.536237,7451.937457)"></g><text x="459.12px" y="7451.937px" style="font-family:'Champagne&Limousines', 'Champagne & Limousines', sans-serif;font-size:447.758px;">A R Q U I T E C T U R A</text><g transform="matrix(447.758342,0,0,447.758342,7243.103117,7451.062929)"></g><text x="5310.396px" y="7451.063px" style="font-family:'Champagne&Limousines', 'Champagne & Limousines', sans-serif;font-size:447.758px;">D I S E Ñ O</text><g transform="matrix(447.758342,0,0,447.758342,12078.012134,7451.937457)"></g><text x="7773.585px" y="7451.937px" style="font-family:'Champagne&Limousines', 'Champagne & Limousines', sans-serif;font-size:447.758px;">C O N S T R U C C I Ó N</text></g><g><g transform="matrix(2370.485339,0,0,2370.485339,1480.080541,6891.647938)"></g><text x="370.073px" y="6891.648px" style="font-family:'Champagne&Limousines', 'Champagne & Limousines', sans-serif;font-size:2370.485px;">P</text><g transform="matrix(2412.978034,0,0,2412.978034,2654.577611,6920.986156)"></g><text x="1524.672px" y="6920.986px" style="font-family:'Champagne&Limousines', 'Champagne & Limousines', sans-serif;font-size:2412.978px;">R</text><g transform="matrix(2370.485339,0,0,2370.485339,4581.002125,6914.797208)"></g><text x="2757.997px" y="6914.797px" style="font-family:'Champagne&Limousines', 'Champagne & Limousines', sans-serif;font-size:2370.485px;">O</text><g transform="matrix(2370.485339,0,0,2370.485339,6016.874027,6934.474089)"></g><text x="4725.145px" y="6934.474px" style="font-family:'Champagne&Limousines', 'Champagne & Limousines', sans-serif;font-size:2370.485px;">Y</text><g transform="matrix(2370.485339,0,0,2370.485339,9263.215122,6954.150969)"></g><text x="7704.112px" y="6954.151px" style="font-family:'Champagne&Limousines', 'Champagne & Limousines', sans-serif;font-size:2370.485px;">C</text><g transform="matrix(2370.485339,0,0,2370.485339,10401.618893,6973.827849)"></g><text x="9407.358px" y="6973.828px" style="font-family:'Champagne&Limousines', 'Champagne & Limousines', sans-serif;font-size:2370.485px;">T</text><g transform="matrix(2370.485339,0,0,2370.485339,12368.766561,6957.62336)"></g><text x="10545.761px" y="6957.623px" style="font-family:'Champagne&Limousines', 'Champagne & Limousines', sans-serif;font-size:2370.485px;">O</text><clipPath id="_clip1"><rect x="6232.779" y="5297.821" width="1304.041" height="1593.827"/></clipPath><g clip-path="url(#_clip1)"><g><rect x="6232.779" y="5297.821" width="1304.041" height="434.68" style="fill:#f79206;stroke:#f79206;stroke-width:0.72px;"/><rect x="6232.779" y="5877.394" width="1304.041" height="434.68" style="fill:#f79206;stroke:#f79206;stroke-width:0.72px;"/><rect x="6232.779" y="6456.968" width="1304.041" height="434.68" style="fill:#f79206;stroke:#f79206;stroke-width:0.72px;"/><rect x="6667.46" y="5732.501" width="434.68" height="144.893" style="fill:#f79206;stroke:#f79206;stroke-width:0.72px;"/><rect x="6667.46" y="6312.074" width="434.68" height="144.893" style="fill:#f79206;stroke:#f79206;stroke-width:0.72px;"/></g></g></g></g></svg>